HIERARCHY
ROOT Hips
{
	OFFSET	0.000000	0.000000	0.000000
	CHANNELS 6 Xposition Yposition Zposition Zrotation Xrotation Yrotation
	JOINT LeftHip
	{
		OFFSET	4.740440	-3.195970	-0.322709
		CHANNELS 3 Zrotation Xrotation Yrotation
		JOINT LeftKnee
		{
			OFFSET	-1.605680	-15.592300	1.005510
			CHANNELS 3 Zrotation Xrotation Yrotation
			JOINT LeftAnkle
			{
				OFFSET	-0.632401	-16.421000	-1.413730
				CHANNELS 3 Zrotation Xrotation Yrotation
				End Site
				{
					OFFSET	0.008423	-2.933000	-1.684880
				}
			}
		}
	}
	JOINT RightHip
	{
		OFFSET	-4.740440	-3.195970	-0.322709
		CHANNELS 3 Zrotation Xrotation Yrotation
		JOINT RightKnee
		{
			OFFSET	1.605680	-15.592300	1.005510
			CHANNELS 3 Zrotation Xrotation Yrotation
			JOINT RightAnkle
			{
				OFFSET	0.632401	-16.421000	-1.413730
				CHANNELS 3 Zrotation Xrotation Yrotation
				End Site
				{
					OFFSET	-0.008423	-2.933000	-1.684880
				}
			}
		}
	}
	JOINT Chest
	{
		OFFSET	0.000000	3.468200	0.078401
		CHANNELS 3 Zrotation Xrotation Yrotation
		JOINT LeftCollar
		{
			OFFSET	3.857650	15.070700	-0.011583
			CHANNELS 3 Zrotation Xrotation Yrotation
			JOINT LeftShoulder
			{
				OFFSET	3.979720	-1.940530	-0.165223
				CHANNELS 3 Zrotation Xrotation Yrotation
				JOINT LeftElbow
				{
					OFFSET	0.615844	-10.986600	-0.673886
					CHANNELS 3 Zrotation Xrotation Yrotation
					JOINT LeftWrist
					{
						OFFSET	0.826843	-10.854500	1.034220
						CHANNELS 3 Zrotation Xrotation Yrotation
						End Site
						{
							OFFSET	-1.679080	-8.456540	0.936217
						}
					}
				}
			}
		}
		JOINT RightCollar
		{
			OFFSET	-3.857650	15.070700	-0.011583
			CHANNELS 3 Zrotation Xrotation Yrotation
			JOINT RightShoulder
			{
				OFFSET	-3.979720	-1.940530	-0.165223
				CHANNELS 3 Zrotation Xrotation Yrotation
				JOINT RightElbow
				{
					OFFSET	-0.615845	-10.986600	-0.673886
					CHANNELS 3 Zrotation Xrotation Yrotation
					JOINT RightWrist
					{
						OFFSET	-0.826843	-10.854500	1.034220
						CHANNELS 3 Zrotation Xrotation Yrotation
						End Site
						{
							OFFSET	1.679080	-8.456540	0.936217
						}
					}
				}
			}
		}
		JOINT Neck
		{
			OFFSET	0.000000	15.101400	0.055730
			CHANNELS 3 Zrotation Xrotation Yrotation
			JOINT Head
			{
				OFFSET	0.000000	4.185120	1.488260
				CHANNELS 3 Zrotation Xrotation Yrotation
				End Site
				{
					OFFSET	0.000000	7.773420	-0.106016
				}
			}
		}
	}
}
MOTION
Frames:    14
Frame Time: 0.016667
-20.099934	37.799488	54.947212	6.138401	-10.969537	3.993906	-4.452621	10.720683	2.750381	-4.241946	1.568504	11.333596	4.847905	-5.153837	2.458995	-18.063223	-0.649242	-2.153365	4.920611	17.031149	2.799305	7.516376	-6.141604	2.833870	-6.391507	8.959867	-0.466969	-3.657808	3.876528	4.512033	5.219820	-4.082770	-3.229284	-111.924431	-45.458473	-59.136311	11.820859	7.465943	43.206207	-8.096472	0.203398	7.508932	-9.325166	-11.197794	5.722183	-64.777588	-121.381317	-88.394890	-22.973936	8.398325	-17.199314	-5.787574	9.284878	-3.618784	2.434220	2.980821	-16.716282	
-20.097538	37.799408	54.947838	6.138401	-10.969537	3.993906	-4.454874	10.733706	2.729506	-4.240910	1.553852	11.353870	4.847905	-5.153837	2.458995	-18.070816	-0.645057	-2.168957	4.923523	17.028597	2.815812	7.516376	-6.141604	2.833870	-6.408683	8.947354	-0.502672	-3.628237	3.875354	4.535674	5.206390	-4.068963	-3.215936	-111.943520	-45.386768	-59.153072	11.617626	7.548793	43.864349	-8.038440	0.025116	7.715605	-10.171140	-12.391136	3.940052	-62.818424	-120.690948	-86.638351	-23.836302	8.145256	-18.032681	-5.926788	9.035467	-3.534689	2.601451	2.663541	-17.413198	
-20.095173	37.799316	54.948421	6.138401	-10.969537	3.993906	-4.455592	10.737900	2.722874	-4.240581	1.549140	11.360308	4.847905	-5.153837	2.458995	-18.078388	-0.641145	-2.183414	4.926758	17.026224	2.831113	7.516376	-6.141604	2.833870	-6.414330	8.943246	-0.514407	-3.608924	3.867864	4.533720	5.193587	-4.055792	-3.203203	-111.960037	-45.324547	-59.167580	11.578100	7.543190	44.087299	-8.021725	-0.038577	7.789721	-10.452342	-12.818268	3.324345	-62.075104	-120.401268	-85.826805	-24.170914	8.020748	-18.224611	-5.980441	8.973076	-3.496566	2.680355	2.495404	-17.706610	
-20.092628	37.799149	54.948822	6.138401	-10.969537	3.993906	-4.456061	10.748131	2.719268	-4.240685	1.538654	11.363235	4.847905	-5.153837	2.458995	-18.087027	-0.638459	-2.192455	4.932698	17.024651	2.840646	7.516376	-6.141604	2.833870	-6.432429	8.937526	-0.542788	-3.577888	3.860390	4.549742	5.180176	-4.041966	-3.189843	-111.974892	-45.268505	-59.180607	11.390141	7.577112	44.619202	-7.930945	-0.290589	8.036510	-11.369427	-14.100910	1.502910	-59.435188	-119.296028	-82.654221	-25.259138	7.545251	-18.330246	-6.113264	8.767630	-3.408093	2.832034	2.489877	-17.998678	
-20.091038	37.799004	54.948936	6.138401	-10.969537	3.993906	-4.456095	10.748851	2.719048	-4.240690	1.537919	11.363405	4.847905	-5.153837	2.458995	-18.092743	-0.637698	-2.194103	4.937945	17.024244	2.842345	7.516376	-6.141604	2.833870	-6.440624	8.940378	-0.549254	-3.556516	3.846939	4.543388	5.168145	-4.029584	-3.177885	-111.980293	-45.248116	-59.185333	11.383387	7.598291	44.732033	-7.896096	-0.395672	8.131064	-11.939445	-15.144404	0.380822	-57.575298	-118.379860	-80.058838	-26.027750	7.082691	-18.173826	-6.134840	8.700429	-3.393816	2.899785	2.369640	-18.242325	
-20.091038	37.799004	54.948936	6.138401	-10.969537	3.993906	-4.456095	10.748851	2.719048	-4.240690	1.537919	11.363405	4.847905	-5.153837	2.458995	-18.092743	-0.637698	-2.194103	4.937945	17.024244	2.842345	7.516376	-6.141604	2.833870	-6.464521	8.951225	-0.565095	-3.521490	3.825822	4.549577	5.157139	-4.018277	-3.166957	-111.978630	-45.247295	-59.228390	11.378669	7.619260	45.021690	-7.823352	-0.734634	8.452626	-12.592559	-15.986840	-0.875759	-55.543167	-117.361473	-77.061050	-26.941450	6.503545	-17.802103	-6.225427	8.523028	-3.367797	3.036782	2.370670	-18.457077	
-20.091038	37.799004	54.948936	6.138401	-10.969537	3.993906	-4.456095	10.748851	2.719048	-4.240690	1.537919	11.363405	4.847905	-5.153837	2.458995	-18.092743	-0.637698	-2.194103	4.937945	17.024244	2.842345	7.516376	-6.141604	2.833870	-6.469752	8.956714	-0.564848	-3.510071	3.807296	4.564035	5.161161	-4.004622	-3.182837	-111.989349	-45.248432	-59.258751	11.384001	7.616190	45.120701	-7.793214	-0.854038	8.555014	-12.927342	-16.454107	-1.438671	-54.386688	-116.823929	-75.363289	-27.444962	6.180631	-17.548536	-6.262115	8.460504	-3.356658	3.117514	2.264930	-18.682192	
-20.091038	37.799004	54.948936	6.138401	-10.969537	3.993906	-4.456095	10.748851	2.719048	-4.240690	1.537919	11.363405	4.847905	-5.153837	2.458995	-18.092743	-0.637698	-2.194103	4.937945	17.024244	2.842345	7.516376	-6.141604	2.833870	-6.483926	8.973467	-0.561910	-3.489366	3.775759	4.580285	5.192262	-3.985360	-3.202815	-112.035835	-45.237179	-59.301842	11.415264	7.597905	45.325916	-7.751999	-1.225520	8.900329	-13.865794	-17.968895	-3.106850	-51.084602	-115.083939	-70.027626	-29.062387	5.135331	-16.700447	-6.378084	8.362315	-3.290258	3.285850	2.205324	-18.934319	
-20.091038	37.799004	54.948936	6.138401	-10.969537	3.993906	-4.456095	10.748851	2.719048	-4.240690	1.537919	11.363405	4.847905	-5.153837	2.458995	-18.092743	-0.637698	-2.194103	4.937945	17.024244	2.842345	7.516376	-6.141604	2.833870	-6.493774	8.985068	-0.559849	-3.475918	3.756069	4.588943	5.233039	-3.970183	-3.197076	-112.086777	-45.209923	-59.310413	11.430740	7.590284	45.363255	-7.749179	-1.359424	9.027710	-14.149655	-18.468351	-3.628242	-47.427784	-114.035637	-64.243729	-30.184856	4.263930	-15.961058	-6.453517	8.287616	-3.249113	3.404318	2.138529	-19.146772	
-20.091038	37.799004	54.948936	6.138401	-10.969537	3.993906	-4.456095	10.748851	2.719048	-4.240690	1.537919	11.363405	4.847905	-5.153837	2.458995	-18.092743	-0.637698	-2.194103	4.937945	17.024244	2.842345	7.516376	-6.141604	2.833870	-6.504660	8.997902	-0.557575	-3.452067	3.713344	4.623677	5.251995	-3.936089	-3.206946	-112.114761	-45.180790	-59.330711	11.493764	7.518471	45.422935	-7.765527	-1.739851	9.418899	-15.036548	-19.950285	-5.008417	-43.690769	-111.875839	-57.126076	-30.403877	4.454389	-16.223530	-6.561744	8.237277	-3.182646	3.566830	2.102515	-19.328613	
-20.091038	37.799004	54.948936	6.138401	-10.969537	3.993906	-4.456095	10.748851	2.719048	-4.240690	1.537919	11.363405	4.847905	-5.153837	2.458995	-18.092743	-0.637698	-2.194103	4.937945	17.024244	2.842345	7.516376	-6.141604	2.833870	-6.509813	9.003987	-0.556500	-3.441183	3.694062	4.638983	5.276268	-3.917246	-3.188617	-112.138451	-45.146908	-59.337193	11.542756	7.458876	45.416588	-7.788581	-1.869717	9.559700	-15.339297	-20.460938	-5.430356	-39.990936	-110.578201	-50.318039	-30.083807	5.017632	-17.196987	-6.596937	8.221040	-3.159631	3.644870	2.097495	-19.405190	
-20.091038	37.799004	54.948936	6.138401	-10.969537	3.993906	-4.456095	10.748851	2.719048	-4.240690	1.537919	11.363405	4.847905	-5.153837	2.458995	-18.092743	-0.637698	-2.194103	4.937945	17.024244	2.842345	7.516376	-6.141604	2.833870	-6.525317	9.022235	-0.553244	-3.416212	3.654264	4.663237	5.285311	-3.892125	-3.178449	-112.139420	-45.133396	-59.368530	11.568068	7.409146	45.442387	-7.857704	-2.283472	10.008837	-16.269388	-21.924711	-6.459967	-38.635532	-108.309311	-46.297134	-33.959034	0.924077	-13.505689	-6.751453	8.211984	-3.277819	3.910402	2.063484	-19.420448	
-20.091038	37.799004	54.948936	6.138401	-10.969537	3.993906	-4.455447	10.750788	2.725619	-4.241235	1.536514	11.356589	4.847905	-5.153837	2.458995	-18.092743	-0.637698	-2.194103	4.937945	17.024244	2.842345	7.516376	-6.141604	2.833870	-6.535309	9.033997	-0.551145	-3.400244	3.628901	4.678529	5.279539	-3.879479	-3.193812	-112.133736	-45.146122	-59.380688	11.570903	7.390965	45.411861	-7.875494	-2.429889	10.161077	-16.582880	-22.392326	-6.695586	-34.767300	-106.874008	-39.137543	-36.422848	-0.887483	-11.758957	-6.811548	8.207233	-3.338015	3.985420	2.066143	-19.420343	
-20.091038	37.799004	54.948936	6.138401	-10.969537	3.993906	-4.454357	10.754032	2.736405	-4.242158	1.534146	11.345391	4.847905	-5.153837	2.458995	-18.092743	-0.637698	-2.194103	4.937945	17.024244	2.842345	7.516376	-6.141604	2.833870	-6.542930	9.047017	-0.544623	-3.380665	3.572998	4.744941	5.267518	-3.840916	-3.253620	-112.113861	-45.185535	-59.378292	11.541503	7.379134	45.376709	-7.919589	-2.800759	10.760546	-17.786762	-23.625074	-7.492601	-32.295734	-104.388161	-34.247536	-39.028088	-2.576730	-10.136333	-6.885343	8.174613	-3.301635	4.164608	2.048141	-19.609404	
